<?xml version="1.0" encoding="utf-8"?>
<!-- Generator: Adobe Illustrator 19.0.0, SVG Export Plug-In . SVG Version: 6.00 Build 0)  -->
<svg version="1.1" id="Layer_1" xmlns="http://www.w3.org/2000/svg" xmlns:xlink="http://www.w3.org/1999/xlink" x="0px" y="0px"
	 viewBox="194 -104.1 1000 1000.1" style="enable-background:new 194 -104.1 1000 1000.1;" xml:space="preserve">
<style type="text/css">
	.st0{fill:#FFFFFF;}
	.st1{fill:#0C4416;}
	.st2{fill:#FBC10A;}
	.st3{fill:#80CD2A;}
</style>
<title>Asset 3</title>
<g>
	<path class="st0" d="M690.3,897.4c-105.1,0-210.2,0-315.5,0c0-322.1,0-644.1,0-966.2c1.4,14.7,2.7,29.4,4.3,44.2
		c3.7,35.6,9.6,70.8,20.7,105c9.9,30.5,25.3,57.7,49.2,79.6c32.1,29.3,70.5,44.2,113.4,48.4c8.5,0.8,17.1,1.2,27.3,1.9
		c-13.5-11.7-26.1-21.5-37.4-32.7c-11.5-11.4-21.9-24-32.3-36.5c-10.2-12.3-20.1-25-29.5-37.9C480.8,90,471.7,76.6,462.8,63
		c-8.6-13.1-16.6-26.5-24.9-39.7c0.8-0.5,1.5-1.1,2.3-1.6c44.2,65.4,99.2,121.2,156.8,175c-4.7-20.2-9.7-40.3-16.1-59.9
		c-17.5-54.1-49.5-97.1-98.1-127.7c-37.9-23.9-73.7-50.8-103.4-84.8c-1.2-1.3-3-2-4.6-3c0-8,0-16,0-24c210.3,0,420.6,0,630.9,0
		c0,333.4,0,666.8,0,1000.1c-99,0-198,0-297.1,0c2.3-0.4,4.6-1,6.9-1.2c36.3-2.7,71.1-11.3,103.7-27.7
		C923,816.2,984.8,703.1,964.5,585.8C949.8,501,904,436.4,830.6,391.6c-11.8-7.2-24.7-12.4-39.7-12.9c0,14.8-0.2,29.1,0.2,43.4
		c0.1,1.9,2.6,4.3,4.5,5.6c7.8,5.3,15.8,10.2,23.7,15.3c20.9,13.8,41.1,28.7,55.9,49.3c37,51.5,53.8,108.4,42.9,171.9
		c-7.3,42.4-24.1,80.9-53.8,112.4c-57.9,61.5-129.8,82.4-211.6,66.8c-97.3-18.6-161.6-95.3-172.8-191c-5.9-50.5,6.4-97.9,32.3-141.4
		c22.1-37.1,50.7-67.1,92.3-82.6c1.7-0.6,3.5-3.6,3.6-5.6c0.4-7.3,0.2-14.6,0.2-21.9c0-7.8,0-15.7,0-24.9
		c-9.6,3.6-17.9,6.1-25.7,9.8c-34.7,15.9-62.9,40.2-87.6,68.9c-37.3,43.3-59,93.3-63.1,150.3c-4.4,60,9.5,116.1,41.8,167
		c39.9,62.8,96.1,103.2,169.3,118.5C658.5,893.6,674.5,895.1,690.3,897.4z M786.1,170.5C843.1,117.7,897,62.9,941.6-0.3
		c-40.3,67.6-83.2,133.1-146.1,182.7c0.8,0.7,1.1,1.2,1.5,1.2c5.2-0.2,10.3-0.5,15.5-0.7c29.9-1.4,58.3-9,84.4-23.1
		c48.9-26.4,75.9-69.4,89.1-122.2c8.2-32.7,13.5-65.9,16.3-99.5c1.1-12.5,1.5-25.1,2.2-37.6c-1.1-0.1-1.5-0.3-1.6-0.2
		c-3,3.3-5.9,6.7-9,9.9c-25.6,26.7-54.8,48.8-85.1,69.7c-16.8,11.6-34.1,23-49,36.9c-32.6,30.4-51,69.5-63.1,111.8
		C792.7,142.4,789.6,156.5,786.1,170.5z M777.3,192.5c-0.6-0.5-1.2-1-1.9-1.6c-8.9,5.6-17.7,11.3-26.6,16.8
		c-9.6,6-19.1,12.1-28.9,17.7c-22.9,12.9-46.8,12.1-71.1,5c-10.9-3.2-21.8-6.4-32.8-9.5c0.7,3.1,2.1,4.9,3.6,6.7
		c9.6,11,19.3,21.9,28.7,33c10.6,12.5,17.7,26.7,18,43.5c0.5,23.1,0.9,46.1,1.2,69.2c0.2,14.5,0,29.1,0,43.9c18.9,0,38.1,0,57.7,0
		c0-2.3,0-4.2,0-6c0.1-37.7-0.4-75.3,0.4-113c0.5-21.7,6.6-42.3,19.8-60.1c9.4-12.7,18.9-25.3,28.2-38
		C775.3,197.8,776.1,195,777.3,192.5z"/>
	<path class="st1" d="M690.3,897.4c-15.8-2.3-31.8-3.8-47.4-7.1c-73.2-15.3-129.4-55.6-169.3-118.5c-32.3-50.9-46.1-106.9-41.8-167
		c4.2-57,25.9-107,63.1-150.3c24.7-28.7,52.9-53,87.6-68.9c7.8-3.6,16.2-6.2,25.7-9.8c0,9.2,0,17,0,24.9c0,7.3,0.2,14.6-0.2,21.9
		c-0.1,2-1.9,5-3.6,5.6c-41.6,15.5-70.3,45.6-92.3,82.6c-25.9,43.5-38.3,90.9-32.3,141.4c11.2,95.7,75.5,172.4,172.8,191
		c81.8,15.6,153.7-5.2,211.6-66.8c29.7-31.5,46.5-70,53.8-112.4c10.9-63.4-6-120.3-42.9-171.9c-14.8-20.6-34.9-35.5-55.9-49.3
		c-7.8-5.2-15.9-10.1-23.7-15.3c-1.9-1.3-4.4-3.6-4.5-5.6c-0.4-14.3-0.2-28.6-0.2-43.4c15,0.5,27.9,5.7,39.7,12.9
		C904,436.4,949.8,501,964.5,585.8c20.3,117.3-41.5,230.4-145.2,282.8c-32.6,16.4-67.4,25-103.7,27.7c-2.3,0.2-4.6,0.8-6.9,1.2
		C702.5,897.4,696.4,897.4,690.3,897.4z"/>
	<path class="st1" d="M374.8-78.7c1.5,1,3.4,1.7,4.6,3c29.8,34,65.5,60.9,103.4,84.8c48.6,30.6,80.6,73.5,98.1,127.7
		c6.3,19.6,11.4,39.7,16.1,59.9c-57.6-53.9-112.5-109.6-156.8-175c-0.8,0.5-1.5,1.1-2.3,1.6c8.3,13.3,16.3,26.7,24.9,39.7
		c8.9,13.6,18,27,27.6,40.1c9.5,12.9,19.3,25.6,29.5,37.9c10.4,12.5,20.8,25.1,32.3,36.5c11.2,11.2,23.8,21,37.4,32.7
		c-10.2-0.7-18.8-1.1-27.3-1.9c-42.9-4.2-81.3-19-113.4-48.4c-23.9-21.8-39.3-49-49.2-79.6c-11.1-34.2-17-69.4-20.7-105
		c-1.5-14.7-2.9-29.4-4.3-44.2C374.8-72.1,374.8-75.4,374.8-78.7z"/>
	<path class="st1" d="M786.1,170.5c3.5-14,6.6-28.2,10.6-42.1c12.1-42.3,30.5-81.4,63.1-111.8c14.9-13.9,32.2-25.3,49-36.9
		c30.3-20.9,59.6-43,85.1-69.7c3.1-3.2,6-6.6,9-9.9c0.1-0.1,0.4,0,1.6,0.2c-0.7,12.5-1.1,25.1-2.2,37.6
		c-2.8,33.6-8.1,66.7-16.3,99.5c-13.3,52.8-40.3,95.8-89.1,122.2c-26.1,14.1-54.6,21.7-84.4,23.1c-5.2,0.2-10.3,0.5-15.5,0.7
		c-0.3,0-0.7-0.5-1.5-1.2C858.3,132.8,901.2,67.3,941.6-0.3C897,62.9,843.1,117.7,786.1,170.5z"/>
	<path class="st1" d="M777.3,192.5c-1.2,2.5-2,5.3-3.6,7.5c-9.3,12.7-18.8,25.3-28.2,38c-13.2,17.9-19.3,38.4-19.8,60.1
		c-0.8,37.7-0.3,75.3-0.4,113c0,1.8,0,3.7,0,6c-19.6,0-38.7,0-57.7,0c0-14.9,0.1-29.4,0-43.9c-0.3-23.1-0.7-46.1-1.2-69.2
		c-0.4-16.8-7.4-30.9-18-43.5c-9.4-11.1-19.2-22-28.7-33c-1.5-1.7-2.9-3.5-3.6-6.7c10.9,3.2,21.8,6.3,32.8,9.5
		c24.3,7.1,48.3,7.9,71.1-5c9.8-5.5,19.3-11.7,28.9-17.7c8.9-5.5,17.7-11.2,26.6-16.8C776.1,191.4,776.7,192,777.3,192.5z"/>
	<circle class="st2" cx="687.9" cy="150.6" r="36.6"/>
	<circle class="st3" cx="695.9" cy="628.2" r="186.5"/>
</g>
</svg>
